<svg version="1.2" xmlns="http://www.w3.org/2000/svg" viewBox="0 0 533 588" width="91" height="100">
	<title>TAUFIQ LOGO 1</title>
	<style>
		.s0 { fill: #fcfcf8 } 
		.s1 { fill: #71c2e2 } 
		.s2 { fill: #317583 } 
		.s3 { fill: #18272c } 
		.s4 { fill: #f69718 } 
	</style>
	<g id="Layer 1">
		<path id="&lt;Path&gt;" class="s0" d="m758.12 806.11h-1004v-1000h1004z"/>
		<g id="&lt;Group&gt;">
			<g id="&lt;Group&gt;">
				<g id="&lt;Group&gt;">
					<path id="&lt;Path&gt;" class="s1" d="m447.28 382.6h-72.44l-17.55-30.45-18.63-32.23-12.89-22.3-4.92-8.5-46.21-80.05-29.19-50.59h72.44l48.35 83.72 37.07 64.29 7.79 13.43z"/>
				</g>
			</g>
			<g id="&lt;Group&gt;">
				<path id="&lt;Path&gt;" class="s1" d="m310.1 194.3l-0.36 0.26-0.18-0.44c0.18 0.09 0.81 0 0.54 0.18z"/>
			</g>
			<g id="&lt;Group&gt;">
				<path id="&lt;Path&gt;" class="s1" d="m320.85 289.12c-5.91 0.36-11.82 0.18-17.55-0.18-5.38-0.27-10.75-0.9-16.03-1.7-1.08-0.09-2.06-0.27-3.14-0.45-6.35-1.34-12.53-2.24-18.71-4.3-24.44-6.98-46.74-20.23-63.66-36.89-16.57-17.19-27.85-36.62-35.46-56.32-3.76-9.85-6.09-20.05-8.95-29.64l-4.75-29.72 16.03 24.71c6.36 7.34 11.91 15.04 18.53 21.58 13.16 13.16 28.03 23.19 42.8 29.1 3.94 1.34 7.88 2.51 11.82 3.13 11.1 2.42 22.03 2.51 32.42 0.72 0.17 0 0.26 0 0.44-0.09z"/>
			</g>
			<g id="&lt;Group&gt;">
				<g id="&lt;Group&gt;">
					<path id="&lt;Path&gt;" class="s2" d="m320.85 289.12c-5.91 0.36-11.82 0.18-17.55-0.18-5.38-0.27-10.75-0.9-16.03-1.7l-45.49-78.8c11.1 2.42 22.03 2.51 32.42 0.72 0.17 0 0.26 0 0.44-0.09z"/>
				</g>
			</g>
			<g id="&lt;Group&gt;">
				<path id="&lt;Path&gt;" class="s3" d="m447.28 382.6h-189.11c-4.3 0-8.51-0.18-12.72-0.54-91.42-6.45-163.86-83-163.86-176.12 0-48.35 19.53-92.23 51.04-124.11l1.79-1.79 22.39 74.05c-0.54 0.99-0.99 1.97-1.43 2.96-7.17 14.77-11.11 31.43-11.11 48.89 0 62.85 51.13 113.98 113.9 113.98h152.93z"/>
			</g>
			<g id="&lt;Group&gt;">
				<path id="&lt;Path&gt;" class="s4" d="m434.83 205.94h-62.68c0-62.86-51.13-113.99-113.98-113.99-44.15 0-82.56 25.25-101.36 62.14l-22.39-74.05c31.88-31.43 75.66-50.77 123.75-50.77 97.42 0 176.66 79.25 176.66 176.67z"/>
			</g>
		</g>
		<g id="&lt;Group&gt;">
			<g id="&lt;Group&gt;">
				<path id="&lt;Compound Path&gt;" fill-rule="evenodd" class="s3" d="m47.24 550.83v9.08h-4.18v-25.34h10.04q4.33 0 6.7 2.01 2.38 2.02 2.38 6.01 0 3.99-2.38 6.11-2.37 2.13-6.7 2.13zm0-3.57h5.32q1.63 0 2.66-0.36 1.02-0.36 1.59-1.03 0.57-0.66 0.78-1.46 0.21-0.8 0.21-1.67 0-0.87-0.21-1.71-0.21-0.84-0.78-1.5-0.57-0.67-1.59-1.05-1.03-0.38-2.66-0.38h-5.32z"/>
				<path id="&lt;Compound Path&gt;" fill-rule="evenodd" class="s3" d="m67.19 559.91v-25.34h11.25q3.96 0 6.06 1.92 2.11 1.92 2.11 5.72 0 1.97-0.8 3.64-0.79 1.68-2.31 2.74-1.07 0.75-2.42 1.04l6.79 10.28h-5.21l-5.92-9.57h-5.37v9.57zm4.18-12.99h5.89q2.51 0 3.75-1.1 1.23-1.11 1.23-3.35 0-2.09-0.97-3.23-0.97-1.14-3.32-1.14h-6.58z"/>
				<path id="&lt;Compound Path&gt;" fill-rule="evenodd" class="s3" d="m102.27 560.33q-3.76 0-6.4-1.44-2.65-1.44-4.01-4.33-1.37-2.89-1.37-7.3 0-6.5 3.02-9.8 3.02-3.31 8.76-3.31 3.8 0 6.42 1.44 2.62 1.45 4.01 4.36 1.39 2.9 1.39 7.31 0 6.46-3.02 9.77-3.02 3.3-8.8 3.3zm0-3.61q2.54 0 4.2-0.97 1.65-0.96 2.47-3.06 0.82-2.09 0.82-5.47 0-3.34-0.82-5.41-0.82-2.07-2.47-3.04-1.66-0.97-4.2-0.97-2.51 0-4.18 0.99-1.67 0.99-2.49 3.06-0.82 2.07-0.82 5.41 0 3.35 0.82 5.43 0.82 2.1 2.49 3.06 1.67 0.97 4.18 0.97z"/>
				<path id="&lt;Compound Path&gt;" class="s3" d="m119.06 559.91v-25.34h16.27v3.53h-12.09v7.56h10.57v3.58h-10.57v10.67z"/>
				<path id="&lt;Compound Path&gt;" class="s3" d="m140.04 559.91v-25.34h16.61v3.53h-12.39v7.34h10.79v3.57h-10.83v7.37h12.43v3.53z"/>
				<path id="&lt;Compound Path&gt;" class="s3" d="m170.06 560.33q-1.9 0-3.34-0.21-1.45-0.21-2.63-0.66-1.17-0.46-2.43-1.1v-4.18q1.48 1.17 3.59 1.93 2.11 0.77 4.54 0.77 2.36-0.01 3.52-0.98 1.16-0.96 1.16-2.67 0-1.33-0.86-2.15-0.85-0.82-2.26-1.39-1.4-0.57-3-1.14-1.22-0.45-2.39-0.97-1.18-0.51-2.13-1.29-0.95-0.78-1.52-1.99-0.57-1.22-0.57-3 0-1.26 0.49-2.55 0.5-1.29 1.5-2.34 1.01-1.04 2.66-1.67 1.66-0.63 3.97-0.63 1.52 0 2.65 0.19 1.12 0.19 2.12 0.59 1.01 0.4 2.19 0.97v4.11q-0.95-0.61-1.92-1.15-0.97-0.53-2.11-0.87-1.14-0.34-2.55-0.38-1.59-0.04-2.62 0.38-1.02 0.42-1.56 1.18-0.53 0.76-0.53 1.75 0 1.33 0.67 2.1 0.66 0.78 1.88 1.3 1.21 0.51 2.81 1 1.4 0.46 2.74 1.03 1.33 0.57 2.35 1.39 1.03 0.82 1.66 2.03 0.62 1.22 0.62 3 0 1.98-0.89 3.71-0.89 1.73-2.81 2.81-1.92 1.08-5 1.08z"/>
				<path id="&lt;Compound Path&gt;" class="s3" d="m191.49 560.33q-1.9 0-3.34-0.21-1.45-0.21-2.62-0.66-1.18-0.46-2.44-1.1v-4.18q1.49 1.17 3.6 1.93 2.1 0.77 4.54 0.77 2.35-0.01 3.51-0.98 1.16-0.96 1.16-2.67 0-1.33-0.86-2.15-0.85-0.82-2.26-1.39-1.4-0.57-3-1.14-1.21-0.45-2.39-0.97-1.18-0.51-2.13-1.29-0.95-0.78-1.52-1.99-0.57-1.22-0.57-3 0-1.26 0.49-2.55 0.5-1.29 1.5-2.34 1.01-1.04 2.66-1.67 1.66-0.63 3.98-0.63 1.52 0 2.64 0.19 1.12 0.19 2.12 0.59 1.01 0.4 2.19 0.97v4.11q-0.95-0.61-1.92-1.15-0.97-0.53-2.11-0.87-1.14-0.34-2.54-0.38-1.6-0.04-2.63 0.38-1.02 0.42-1.55 1.18-0.54 0.76-0.54 1.75 0 1.33 0.67 2.1 0.66 0.78 1.88 1.3 1.21 0.51 2.81 1 1.41 0.46 2.74 1.03 1.33 0.57 2.35 1.39 1.03 0.82 1.66 2.03 0.62 1.22 0.62 3 0 1.98-0.89 3.71-0.89 1.73-2.81 2.81-1.92 1.08-5 1.08z"/>
				<path id="&lt;Compound Path&gt;" class="s3" d="m205.17 559.91v-25.34h4.22v25.34z"/>
				<path id="&lt;Compound Path&gt;" fill-rule="evenodd" class="s3" d="m226.19 560.33q-3.77 0-6.41-1.44-2.64-1.44-4.01-4.33-1.36-2.89-1.36-7.3 0-6.5 3.02-9.8 3.02-3.31 8.76-3.31 3.8 0 6.42 1.44 2.62 1.45 4.01 4.36 1.38 2.9 1.38 7.31 0 6.46-3.02 9.77-3.02 3.3-8.79 3.3zm0-3.61q2.54 0 4.2-0.97 1.65-0.96 2.46-3.06 0.82-2.09 0.82-5.47 0-3.34-0.82-5.41-0.81-2.07-2.46-3.04-1.66-0.97-4.2-0.97-2.51 0-4.18 0.99-1.68 0.99-2.49 3.06-0.82 2.07-0.82 5.41 0 3.35 0.82 5.43 0.81 2.1 2.49 3.06 1.67 0.97 4.18 0.97z"/>
				<path id="&lt;Compound Path&gt;" class="s3" d="m242.98 559.91v-25.34h4.03l14.63 20.25-1.18 2.28v-22.53h3.99v25.34h-3.76l-15.05-20.67 1.33-1.86v22.53z"/>
				<path id="&lt;Compound Path&gt;" fill-rule="evenodd" class="s3" d="m268.1 559.91l9.88-25.34h4.44l9.62 25.34h-4.41l-2.5-6.87h1.44l-0.34-3.42h-2.35l-3.95-10.87-3.93 10.87h-1.82l-1.22 3.42h1.81l-2.49 6.87zm17.03-6.87l-1.25-3.42h-7.88l-1.23 3.42z"/>
				<path id="&lt;Compound Path&gt;" class="s3" d="m295.69 559.91v-25.34h4.21v21.77h12.09v3.57z"/>
				<path id="&lt;Compound Path&gt;" class="s3" d="m334.6 560.33q-1.9 0-3.35-0.21-1.44-0.21-2.62-0.66-1.18-0.46-2.43-1.1v-4.18q1.48 1.17 3.59 1.93 2.11 0.77 4.54 0.77 2.36-0.01 3.52-0.98 1.16-0.96 1.16-2.67 0-1.33-0.86-2.15-0.86-0.82-2.26-1.39-1.41-0.57-3-1.14-1.22-0.45-2.4-0.97-1.17-0.51-2.12-1.29-0.95-0.78-1.52-1.99-0.57-1.22-0.57-3 0-1.26 0.49-2.55 0.49-1.29 1.5-2.34 1.01-1.04 2.66-1.67 1.65-0.63 3.97-0.63 1.52 0 2.64 0.19 1.12 0.19 2.13 0.59 1.01 0.4 2.19 0.97v4.11q-0.95-0.61-1.92-1.15-0.97-0.53-2.11-0.87-1.14-0.34-2.55-0.38-1.59-0.04-2.62 0.38-1.02 0.42-1.56 1.18-0.53 0.76-0.53 1.75 0 1.33 0.66 2.1 0.67 0.78 1.89 1.3 1.21 0.51 2.81 1 1.4 0.46 2.73 1.03 1.33 0.57 2.36 1.39 1.03 0.82 1.65 2.03 0.63 1.22 0.63 3 0 1.98-0.89 3.71-0.9 1.73-2.81 2.81-1.92 1.08-5 1.08z"/>
				<path id="&lt;Compound Path&gt;" class="s3" d="m348.28 559.91v-25.34h16.6v3.53h-12.38v7.34h10.79v3.57h-10.83v7.37h12.42v3.53z"/>
				<path id="&lt;Compound Path&gt;" fill-rule="evenodd" class="s3" d="m370.55 559.91v-25.34h11.24q3.96 0 6.06 1.92 2.11 1.92 2.11 5.72 0 1.97-0.8 3.64-0.79 1.68-2.31 2.74-1.07 0.75-2.42 1.04l6.79 10.28h-5.21l-5.92-9.57h-5.36v9.57zm4.17-12.99h5.9q2.5 0 3.74-1.1 1.23-1.11 1.23-3.35 0-2.09-0.97-3.23-0.96-1.14-3.32-1.14h-6.58z"/>
				<path id="&lt;Compound Path&gt;" class="s3" d="m402.65 559.91l-9.61-25.34h4.71l8.1 22.42h-1.41l7.98-22.38 4.41-0.04-9.84 25.34z"/>
				<path id="&lt;Compound Path&gt;" class="s3" d="m420.48 559.91v-25.34h4.22v25.34z"/>
				<path id="&lt;Compound Path&gt;" class="s3" d="m441.57 560.3q-5.97-0.01-9.01-3.24-3.04-3.23-3.04-9.84 0-6.49 3-9.78 3-3.29 9.05-3.29 2.01 0 4.01 0.49 1.99 0.5 3.85 1.37v3.76q-1.86-1.1-3.7-1.61-1.84-0.51-3.63-0.51-2.77 0-4.62 0.99-1.84 0.98-2.73 3.07-0.9 2.09-0.9 5.55 0 3.38 0.92 5.49 0.91 2.11 2.75 3.08 1.84 0.97 4.69 0.97 1.71 0 3.54-0.51 1.82-0.52 3.68-1.58v3.76q-1.14 0.57-2.47 0.99-1.33 0.42-2.69 0.63-1.37 0.2-2.7 0.21z"/>
				<path id="&lt;Compound Path&gt;" class="s3" d="m454.45 559.91v-25.34h16.61v3.53h-12.39v7.34h10.79v3.57h-10.83v7.37h12.43v3.53z"/>
				<path id="&lt;Compound Path&gt;" class="s3" d="m484.47 560.33q-1.9 0-3.34-0.21-1.45-0.21-2.63-0.66-1.18-0.46-2.43-1.1v-4.18q1.48 1.17 3.59 1.93 2.11 0.77 4.54 0.77 2.36-0.01 3.52-0.98 1.16-0.96 1.16-2.67 0-1.33-0.86-2.15-0.85-0.82-2.26-1.39-1.41-0.57-3-1.14-1.22-0.45-2.39-0.97-1.18-0.51-2.13-1.29-0.95-0.78-1.52-1.99-0.57-1.22-0.57-3 0-1.26 0.49-2.55 0.5-1.29 1.5-2.34 1.01-1.04 2.66-1.67 1.65-0.63 3.97-0.63 1.52 0 2.64 0.19 1.13 0.19 2.13 0.59 1.01 0.4 2.19 0.97v4.11q-0.95-0.61-1.92-1.15-0.97-0.53-2.11-0.87-1.14-0.34-2.55-0.38-1.59-0.04-2.62 0.38-1.02 0.42-1.56 1.18-0.53 0.76-0.53 1.75 0 1.33 0.67 2.1 0.66 0.78 1.88 1.3 1.21 0.51 2.81 1 1.41 0.46 2.74 1.03 1.33 0.57 2.35 1.39 1.03 0.82 1.65 2.03 0.63 1.22 0.63 3 0 1.98-0.89 3.71-0.9 1.73-2.81 2.81-1.92 1.08-5 1.08z"/>
			</g>
		</g>
		<g id="&lt;Group&gt;">
			<g id="&lt;Group&gt;">
				<path id="&lt;Compound Path&gt;" fill-rule="evenodd" class="s4" d="m99.19 512.22q-28.32 0-43.12-13.55-14.8-13.54-14.8-41.91 0-27.58 14.43-41.6 14.44-14.03 43.49-14.03 28.69 0 43.49 13.63 14.8 13.63 14.8 42 0 27.57-14.44 41.52-3.85 3.72-8.77 6.45 1.06 1.52 2.2 2.74 3.83 4.12 9.13 4.12 3.11 0 5.48-0.55 2.38-0.56 6.22-2.62v14.1q-3.48 1.75-7.49 2.38-4.02 0.63-8.41 0.64-4.75-0.01-9.23-1.11-4.48-1.11-8.49-3.57-4.03-2.46-7.13-6.5-1.14-1.48-2.11-3.22-7.04 1.08-15.25 1.08zm0-15.53q4.78-0.13 8.85-0.94-0.48-0.89-0.99-1.75-2.74-4.6-6.4-7.29-3.65-2.69-8.95-2.7-6.03 0-10.87 2.38-2.39 1.17-4.53 2.8 2.27 2.22 5.07 3.7 7.22 3.8 17.82 3.8zm29.05-16.56q3.66-8.63 3.66-23.53 0-14.11-3.66-22.43-3.65-8.32-10.87-12.04-7.22-3.72-18.18-3.72-10.6 0-17.82 3.72-7.22 3.73-10.87 12.12-3.65 8.4-3.65 22.51 0 14.9 3.65 23.61 0.75 1.78 1.65 3.36v-5.58q3.1-3.48 9.32-6.58 6.21-3.09 14.61-3.09 7.68 0.01 14.17 3.01 6.48 3.02 11.51 9.04 1.9 2.28 3.5 5.04 1.71-2.42 2.98-5.44z"/>
				<path id="&lt;Compound Path&gt;" class="s4" d="m269.85 512.22q-26.49 0-40.01-10.69-13.53-10.7-13.52-32.57v-65.13h25.76v64.5q0 13.63 6.58 20.2 6.58 6.58 20.28 6.58 12.97 0 20.01-6.58 7.03-6.57 7.03-20.2v-64.5h23.76v65.13q0 14.58-6.22 24.25-6.21 9.67-17.35 14.34-11.15 4.67-26.32 4.67z"/>
				<path id="&lt;Compound Path&gt;" fill-rule="evenodd" class="s4" d="m436.68 511.43q-18.09 0-31.07-5.94-12.97-5.95-19.91-18.07-6.95-12.12-6.95-30.66 0-27.1 15.08-40.97 15.07-13.87 42.85-13.87 18.27 0 31.24 6.03 12.97 6.02 20.01 18.06 7.04 12.05 7.04 30.75 0 26.94-15.08 40.8-15.07 13.87-43.21 13.87zm0-17.91q10.96 0 18.18-3.72 7.22-3.72 10.87-11.81 3.66-8.08 3.66-21.39 0-13.31-3.66-21.32-3.65-8-10.87-11.64-7.22-3.65-18.18-3.65-10.6 0-17.82 3.73-7.22 3.72-10.87 11.72-3.66 8.01-3.66 21.32 0 13.31 3.66 21.39 3.65 8.08 10.87 11.73 7.22 3.65 17.82 3.64z"/>
			</g>
		</g>
	</g>
</svg>