<svg version="1.2" xmlns="http://www.w3.org/2000/svg" viewBox="0 0 983 393" width="983" height="393"><style>.a{fill:#fcfcf8}.b{fill:#71c2e2}.c{fill:#317583}.d{fill:#18272c}.e{fill:#f69718}</style><path class="a" d="m983.1 720.1h-1004v-1000h1004z"/><path  d="m539.1 304.5v7.1q-4.1-2-7.8-3-3.6-0.9-7-0.9-5.9 0-9.1 2.2-3.2 2.3-3.2 6.5 0 3.6 2.2 5.4 2.1 1.8 8 2.9l4.4 0.9q8 1.5 11.8 5.4 3.9 3.8 3.9 10.3 0 7.7-5.2 11.7-5.2 4-15.2 4-3.8 0-8.1-0.8-4.2-0.9-8.8-2.6v-7.4q4.4 2.5 8.6 3.7 4.2 1.3 8.3 1.3 6.2 0 9.5-2.4 3.4-2.5 3.4-7 0-3.9-2.5-6.1-2.4-2.2-7.8-3.3l-4.4-0.9q-8.1-1.6-11.7-5-3.6-3.4-3.6-9.5 0-7.1 5-11.1 5-4.1 13.7-4.1 3.7 0 7.6 0.7 3.9 0.7 8 2zm14.1 51.5v-53.2h33.6v6h-26.4v15.8h25.3v6.1h-25.3v19.2h27.1v6.1zm72.2-25q2.3 0.8 4.5 3.4 2.2 2.6 4.4 7.1l7.3 14.5h-7.7l-6.8-13.7q-2.7-5.3-5.2-7-2.4-1.8-6.7-1.8h-7.8v22.5h-7.2v-53.2h16.2q9.1 0 13.6 3.8 4.5 3.8 4.5 11.5 0 5-2.3 8.4-2.4 3.3-6.8 4.5zm-9-22.3h-9v18.9h9q5.2 0 7.9-2.4 2.6-2.4 2.6-7.1 0-4.7-2.6-7-2.7-2.4-7.9-2.4zm51.6 47.3h-8.1l-20.3-53.2h7.5l16.8 44.8 16.9-44.8h7.5zm28.1 0v-53.2h7.2v53.2zm61.9-49.1v7.6q-3.6-3.4-7.8-5.1-4.1-1.7-8.7-1.7-9.1 0-14 5.6-4.8 5.6-4.8 16.1 0 10.5 4.8 16.1 4.9 5.6 14 5.6 4.6 0 8.7-1.7 4.2-1.7 7.8-5v7.5q-3.8 2.6-8 3.8-4.2 1.3-8.9 1.3-12.1 0-19.1-7.4-6.9-7.4-6.9-20.2 0-12.8 6.9-20.2 7-7.4 19.1-7.4 4.7 0 8.9 1.3 4.3 1.2 8 3.8zm11.1 49.1v-53.2h33.7v6h-26.5v15.8h25.4v6h-25.4v19.3h27.1v6.1zm77.9-51.5v7q-4.1-1.9-7.7-2.9-3.6-1-7-1-5.9 0-9.1 2.3-3.2 2.3-3.2 6.5 0 3.5 2.1 5.4 2.2 1.7 8.1 2.9l4.3 0.8q8.1 1.6 11.9 5.5 3.8 3.8 3.8 10.3 0 7.7-5.2 11.7-5.1 4-15.2 4-3.7 0-8-0.8-4.2-0.9-8.8-2.6v-7.4q4.4 2.5 8.6 3.7 4.2 1.3 8.2 1.3 6.2 0 9.6-2.5 3.3-2.4 3.3-6.9 0-3.9-2.4-6.1-2.4-2.2-7.9-3.3l-4.4-0.9q-8-1.6-11.6-5-3.6-3.4-3.6-9.5 0-7.1 4.9-11.1 5-4.1 13.8-4.1 3.7 0 7.6 0.7 3.9 0.7 7.9 2z"/><path  d="m434.4 212.7h-9v20h9q5 0 7.8-2.6 2.7-2.6 2.7-7.4 0-4.8-2.7-7.4-2.8-2.6-7.8-2.6zm-16.2 47.3v-53.2h16.2q9 0 13.5 4 4.6 4.1 4.6 11.9 0 7.9-4.6 11.9-4.5 4-13.5 4h-9v21.4zm69.2-25q2.3 0.8 4.5 3.4 2.2 2.6 4.4 7.1l7.3 14.5h-7.7l-6.8-13.7q-2.7-5.3-5.2-7-2.4-1.8-6.7-1.8h-7.8v22.5h-7.2v-53.2h16.2q9.1 0 13.6 3.8 4.5 3.8 4.5 11.5 0 5-2.3 8.4-2.3 3.3-6.8 4.5zm-9-22.3h-9v18.9h9q5.2 0 7.9-2.4 2.6-2.4 2.6-7.1 0-4.7-2.6-7-2.7-2.4-7.9-2.4zm56.4-1q-7.9 0-12.5 5.8-4.6 5.9-4.6 15.9 0 10.1 4.6 15.9 4.6 5.9 12.5 5.9 7.8 0 12.4-5.9 4.6-5.8 4.6-15.9 0-10-4.6-15.9-4.6-5.8-12.4-5.8zm0-5.9q11.2 0 17.9 7.5 6.7 7.5 6.7 20.1 0 12.6-6.7 20.1-6.7 7.5-17.9 7.5-11.3 0-18-7.5-6.7-7.4-6.7-20.1 0-12.6 6.7-20.1 6.7-7.5 18-7.5zm36.4 54.2v-53.2h30.5v6h-23.3v15.7h21.1v6.1h-21.1v25.4zm42 0v-53.2h33.6v6h-26.4v15.8h25.3v6.1h-25.3v19.2h27.1v6.1zm77.9-51.5v7.1q-4.1-2-7.8-3-3.6-0.9-7-0.9-5.9 0-9.1 2.2-3.2 2.3-3.2 6.5 0 3.6 2.1 5.4 2.2 1.8 8.1 2.9l4.3 0.9q8.1 1.5 11.9 5.4 3.9 3.8 3.9 10.3 0 7.7-5.2 11.7-5.2 4-15.2 4-3.8 0-8.1-0.8-4.2-0.9-8.8-2.6v-7.4q4.4 2.5 8.6 3.7 4.2 1.3 8.3 1.3 6.1 0 9.5-2.4 3.3-2.5 3.3-7 0-3.9-2.4-6.1-2.4-2.2-7.9-3.3l-4.3-0.9q-8.1-1.6-11.7-5-3.6-3.4-3.6-9.5 0-7.1 5-11.1 4.9-4.1 13.7-4.1 3.7 0 7.6 0.7 3.9 0.7 8 2zm46 0v7.1q-4.1-2-7.8-3-3.6-0.9-7-0.9-5.9 0-9.1 2.2-3.2 2.3-3.2 6.5 0 3.6 2.1 5.4 2.2 1.8 8.1 2.9l4.3 0.9q8.1 1.5 11.9 5.4 3.9 3.8 3.9 10.3 0 7.7-5.2 11.7-5.2 4-15.2 4-3.8 0-8.1-0.8-4.2-0.9-8.8-2.6v-7.4q4.4 2.5 8.6 3.7 4.2 1.3 8.3 1.3 6.1 0 9.5-2.4 3.3-2.5 3.3-7 0-3.9-2.4-6.1-2.4-2.2-7.9-3.3l-4.3-0.9q-8.1-1.6-11.7-5-3.6-3.4-3.6-9.5 0-7.1 5-11.1 4.9-4.1 13.7-4.1 3.7 0 7.6 0.7 3.9 0.7 8 2zm14.1 51.5v-53.2h7.2v53.2zm43.6-48.3q-7.9 0-12.5 5.8-4.6 5.9-4.6 15.9 0 10.1 4.6 15.9 4.6 5.9 12.5 5.9 7.8 0 12.4-5.9 4.6-5.8 4.6-15.9 0-10-4.6-15.9-4.6-5.8-12.4-5.8zm0-5.9q11.1 0 17.8 7.5 6.8 7.5 6.8 20.1 0 12.6-6.8 20.1-6.7 7.5-17.8 7.5-11.3 0-18-7.5-6.7-7.4-6.7-20.1 0-12.6 6.7-20.1 6.7-7.5 18-7.5zm35.4 54.2v-53.2h9.7l23.5 44.5v-44.5h7v53.2h-9.7l-23.6-44.5v44.5zm82.6-19.6l-9.8-26.5-9.7 26.5zm-34.2 19.6l20.3-53.2h8.2l20.2 53.2h-7.4l-4.9-13.7h-24l-4.8 13.7zm56.6 0v-53.2h7.2v47.1h25.9v6.1z"/><path class="b" d="m384.3 372.6h-72.5l-17.5-30.4-18.6-32.3-12.9-22.3-5-8.5-46.2-80-29.1-50.6h72.4l48.3 83.7 37.1 64.3 7.8 13.4z"/><path class="b" d="m535.1 109.3l-0.4 0.3-0.1-0.5c0.1 0.1 0.8 0 0.5 0.2z"/><path class="b" d="m266.8 292.1c-5.9 0.4-11.8 0.2-17.5-0.2-5.4-0.2-10.7-0.9-16-1.7-1.1-0.1-2.1-0.2-3.2-0.4-6.3-1.4-12.5-2.2-18.7-4.3-24.4-7-46.7-20.2-63.6-36.9-16.6-17.2-27.9-36.6-35.5-56.3-3.8-9.9-6.1-20.1-9-29.7l-4.7-29.7 16 24.7c6.4 7.4 11.9 15.1 18.6 21.6 13.1 13.2 28 23.2 42.8 29.1 3.9 1.4 7.8 2.5 11.8 3.1 11.1 2.5 22 2.6 32.4 0.8 0.2 0 0.3 0 0.4-0.1z"/><path class="c" d="m265.8 292.1c-5.9 0.4-11.8 0.2-17.5-0.2-5.4-0.2-10.7-0.9-16-1.7l-45.5-78.8c11.1 2.5 22 2.6 32.4 0.8 0.2 0 0.3 0 0.4-0.1z"/><path class="d" d="m386.3 372.6h-189.1c-4.3 0-8.5-0.2-12.7-0.5-91.5-6.5-163.9-83-163.9-176.2 0-48.3 19.5-92.2 51-124.1l1.8-1.8 22.4 74.1c-0.5 1-1 2-1.4 2.9-7.2 14.8-11.1 31.5-11.1 48.9 0 62.9 51.1 114 113.9 114h152.9z"/><path class="e" d="m372.8 196.9h-62.6c0-62.8-51.2-113.9-114-113.9-44.2 0-82.6 25.2-101.4 62.1l-22.4-74.1c31.9-31.4 75.7-50.7 123.8-50.7 97.4 0 176.6 79.2 176.6 176.6z"/><path fill-rule="evenodd" class="e" d="m464.2 145.2q-28.3 0-43.1-13.5-14.8-13.6-14.8-41.9 0-27.6 14.4-41.6 14.4-14.1 43.5-14.1 28.7 0 43.5 13.7 14.8 13.6 14.8 42 0 27.5-14.5 41.5-3.8 3.7-8.7 6.4 1 1.5 2.2 2.8 3.8 4.1 9.1 4.1 3.1 0 5.5-0.6 2.4-0.5 6.2-2.6v14.1q-3.5 1.8-7.5 2.4-4 0.6-8.4 0.6-4.8 0-9.2-1.1-4.5-1.1-8.5-3.5-4-2.5-7.2-6.5-1.1-1.5-2.1-3.3-7 1.1-15.2 1.1zm0-15.5q4.8-0.1 8.8-0.9-0.4-0.9-1-1.8-2.7-4.6-6.3-7.3-3.7-2.7-9-2.7-6 0-10.9 2.4-2.4 1.2-4.5 2.8 2.3 2.2 5.1 3.7 7.2 3.8 17.8 3.8zm29-16.6q3.7-8.6 3.7-23.5 0-14.1-3.7-22.4-3.6-8.3-10.8-12.1-7.2-3.7-18.2-3.7-10.6 0-17.8 3.7-7.2 3.8-10.9 12.2-3.7 8.4-3.7 22.5 0 14.9 3.7 23.6 0.8 1.8 1.6 3.3v-5.5q3.2-3.5 9.4-6.6 6.2-3.1 14.6-3.1 7.7 0 14.1 3 6.5 3 11.6 9 1.9 2.3 3.5 5.1 1.7-2.5 2.9-5.5z"/><path class="e" d="m679.9 147.2q-26.5 0-40.1-10.7-13.5-10.7-13.5-32.5v-65.2h25.8v64.5q0 13.7 6.6 20.2 6.5 6.6 20.2 6.6 13 0 20-6.6 7.1-6.5 7.1-20.2v-64.5h23.7v65.2q0 14.5-6.2 24.2-6.2 9.7-17.3 14.3-11.2 4.7-26.3 4.7z"/><path fill-rule="evenodd" class="e" d="m885.7 143.4q-18.1 0-31.1-5.9-13-6-19.9-18.1-6.9-12.1-6.9-30.6 0-27.1 15-41 15.1-13.9 42.9-13.9 18.2 0 31.2 6 13 6.1 20 18.1 7.1 12.1 7.1 30.8 0 26.9-15.1 40.8-15.1 13.8-43.2 13.8zm0-17.9q10.9 0 18.2-3.7 7.2-3.7 10.8-11.8 3.7-8.1 3.7-21.4 0-13.3-3.7-21.3-3.6-8-10.8-11.7-7.3-3.6-18.2-3.6-10.6 0-17.8 3.7-7.3 3.7-10.9 11.7-3.7 8-3.7 21.4 0 13.3 3.7 21.4 3.6 8 10.9 11.7 7.2 3.6 17.8 3.6z"/></svg>