<svg version="1.2" xmlns="http://www.w3.org/2000/svg" viewBox="0 0 625 198" width="625" height="198"><style>.a{fill:#fcfcf8}.b{fill:#71c2e2}.c{fill:#317583}.d{fill:#18272c}.e{fill:#f69718}</style><path class="a" d="m772.1 601.1h-1004v-1000h1004z"/><path class="b" d="m180 174h-25.6l-6.2-10.8-6.6-11.3-4.5-7.9-1.7-3-16.3-28.2-10.3-17.9h25.5l17.1 29.6 13 22.6 2.8 4.8z"/><path class="b" d="m91.2 94.5l-0.2 0.1-0.2-0.3c0.2 0.1 0.6 0 0.4 0.2z"/><path class="b" d="m133.8 136.9c-2.6 0.1-5.2 0.1-7.6-0.1-2.4-0.1-4.7-0.4-7-0.7-0.5-0.1-0.9-0.2-1.4-0.2-2.7-0.6-5.4-1-8.1-1.9-10.6-3.1-20.2-8.9-27.6-16.2-7.2-7.5-12.1-16-15.4-24.6-1.6-4.3-2.6-8.8-3.9-13l-2-13 6.9 10.8c2.8 3.2 5.2 6.6 8.1 9.5 5.7 5.7 12.1 10.1 18.5 12.7 1.8 0.6 3.5 1.1 5.2 1.4 4.8 1 9.5 1.1 14 0.3 0.1 0 0.2 0 0.2-0.1z"/><path class="c" d="m132.6 136.2c-2.4 0.2-4.9 0.1-7.3-0.1-2.3-0.1-4.6-0.4-6.8-0.7l-19.2-33.6c4.7 1 9.3 1 13.7 0.3 0.1 0 0.1 0 0.2-0.1z"/><path class="d" d="m180.6 174.6h-80.9q-2.8 0-5.4-0.3c-39.2-2.7-70.1-35.4-70.1-75.1 0-20.7 8.3-39.4 21.8-53l0.8-0.8 9.5 31.6q-0.3 0.7-0.6 1.3c-3 6.3-4.7 13.4-4.7 20.9 0 26.8 21.8 48.6 48.7 48.6h65.4z"/><path class="e" d="m173.5 99h-26.4c0-26.7-21.6-48.3-48.1-48.3-18.6 0-34.8 10.7-42.7 26.3l-9.5-31.4c13.5-13.3 31.9-21.5 52.2-21.5 41.1 0 74.5 33.6 74.5 74.9z"/><path fill-rule="evenodd" class="d" d="m211 162.9v7.8h-3.6v-21.9h8.7q3.7 0 5.8 1.7 2 1.8 2 5.2 0 3.5-2 5.3-2.1 1.9-5.8 1.9zm0-3.1h4.6q1.4 0 2.3-0.3 0.9-0.4 1.4-0.9 0.5-0.6 0.7-1.3 0.1-0.7 0.1-1.4 0-0.8-0.1-1.5-0.2-0.8-0.7-1.3-0.5-0.6-1.4-0.9-0.9-0.4-2.3-0.4h-4.6z"/><path fill-rule="evenodd" class="d" d="m228.3 170.7v-21.9h9.7q3.5 0 5.3 1.6 1.8 1.7 1.8 5 0 1.7-0.7 3.2-0.7 1.4-2 2.3-0.9 0.7-2.1 0.9l5.9 8.9h-4.5l-5.1-8.3h-4.7v8.3zm3.6-11.2h5.1q2.2 0 3.3-1 1.1-0.9 1.1-2.9 0-1.8-0.9-2.8-0.8-1-2.9-1h-5.7z"/><path fill-rule="evenodd" class="d" d="m258.7 171.1q-3.3 0-5.6-1.2-2.2-1.3-3.4-3.8-1.2-2.5-1.2-6.3 0-5.7 2.6-8.5 2.6-2.9 7.6-2.9 3.3 0 5.6 1.3 2.2 1.2 3.4 3.7 1.2 2.6 1.2 6.4 0 5.6-2.6 8.4-2.6 2.9-7.6 2.9zm0-3.1q2.2 0 3.6-0.9 1.5-0.8 2.2-2.6 0.7-1.8 0.7-4.8 0-2.9-0.7-4.7-0.7-1.8-2.2-2.6-1.4-0.8-3.6-0.8-2.2 0-3.6 0.8-1.5 0.9-2.2 2.7-0.7 1.8-0.7 4.7 0 2.9 0.7 4.7 0.7 1.8 2.2 2.6 1.4 0.9 3.6 0.9z"/><path class="d" d="m273.3 170.7v-21.9h14.1v3h-10.5v6.6h9.1v3.1h-9.1v9.2z"/><path class="d" d="m291.4 170.7v-21.9h14.4v3h-10.7v6.4h9.3v3.1h-9.3v6.4h10.7v3z"/><path class="d" d="m317.5 171.1q-1.7 0-2.9-0.2-1.3-0.2-2.3-0.6-1-0.4-2.1-0.9v-3.6q1.3 1 3.1 1.6 1.8 0.7 3.9 0.7 2.1 0 3.1-0.8 1-0.9 1-2.4 0-1.1-0.8-1.8-0.7-0.7-1.9-1.2-1.2-0.5-2.6-1-1.1-0.4-2.1-0.8-1-0.5-1.8-1.2-0.9-0.6-1.4-1.7-0.5-1.1-0.5-2.6 0-1.1 0.5-2.2 0.4-1.1 1.3-2 0.8-0.9 2.3-1.5 1.4-0.5 3.4-0.5 1.3 0 2.3 0.1 1 0.2 1.9 0.5 0.8 0.4 1.8 0.9v3.5q-0.8-0.5-1.6-0.9-0.9-0.5-1.8-0.8-1-0.3-2.3-0.3-1.3-0.1-2.2 0.3-0.9 0.4-1.4 1-0.4 0.7-0.4 1.5 0 1.2 0.5 1.9 0.6 0.6 1.7 1.1 1 0.4 2.4 0.9 1.2 0.4 2.4 0.8 1.1 0.5 2 1.2 0.9 0.8 1.5 1.8 0.5 1.1 0.5 2.6 0 1.7-0.8 3.2-0.8 1.5-2.4 2.5-1.7 0.9-4.3 0.9z"/><path class="d" d="m336 171.1q-1.6 0-2.9-0.2-1.2-0.2-2.2-0.6-1.1-0.4-2.1-0.9v-3.6q1.2 1 3.1 1.6 1.8 0.7 3.9 0.7 2 0 3-0.8 1.1-0.9 1.1-2.4 0-1.1-0.8-1.8-0.7-0.7-1.9-1.2-1.3-0.5-2.7-1-1-0.4-2-0.8-1-0.5-1.9-1.2-0.8-0.6-1.3-1.7-0.5-1.1-0.5-2.6 0-1.1 0.4-2.2 0.5-1.1 1.3-2 0.9-0.9 2.4-1.5 1.4-0.5 3.4-0.5 1.3 0 2.3 0.1 1 0.2 1.8 0.5 0.9 0.4 1.9 0.9v3.5q-0.8-0.5-1.6-0.9-0.9-0.5-1.9-0.8-1-0.3-2.2-0.3-1.4-0.1-2.2 0.3-0.9 0.4-1.4 1-0.5 0.7-0.5 1.5 0 1.2 0.6 1.9 0.6 0.6 1.6 1.1 1.1 0.4 2.5 0.9 1.2 0.4 2.4 0.8 1.1 0.5 2 1.2 0.9 0.8 1.4 1.8 0.6 1.1 0.6 2.6 0 1.7-0.8 3.2-0.8 1.5-2.4 2.5-1.7 0.9-4.4 0.9z"/><path class="d" d="m347.9 170.7v-21.9h3.6v21.9z"/><path fill-rule="evenodd" class="d" d="m366.1 171.1q-3.3 0-5.5-1.2-2.3-1.3-3.5-3.8-1.2-2.5-1.2-6.3 0-5.7 2.6-8.5 2.6-2.9 7.6-2.9 3.3 0 5.6 1.3 2.2 1.2 3.4 3.7 1.2 2.6 1.2 6.4 0 5.6-2.6 8.4-2.6 2.9-7.6 2.9zm0-3.1q2.2 0 3.6-0.9 1.5-0.8 2.2-2.6 0.7-1.8 0.7-4.8 0-2.9-0.7-4.7-0.7-1.8-2.2-2.6-1.4-0.8-3.6-0.8-2.2 0-3.6 0.8-1.5 0.9-2.2 2.7-0.7 1.8-0.7 4.7 0 2.9 0.7 4.7 0.7 1.8 2.2 2.6 1.4 0.9 3.6 0.9z"/><path class="d" d="m380.7 170.7v-21.9h3.5l12.6 17.5-1 2v-19.5h3.5v21.9h-3.3l-13-17.9 1.1-1.6v19.5z"/><path fill-rule="evenodd" class="d" d="m402.4 170.7l8.6-21.9h3.8l8.4 21.9h-3.8l-2.2-5.9h1.2l-0.3-3h-2l-3.4-9.4-3.4 9.4h-1.6l-1.1 3h1.6l-2.1 5.9zm14.7-5.9l-1.1-3h-6.8l-1.1 3z"/><path class="d" d="m426.3 170.7v-21.9h3.7v18.8h10.5v3.1z"/><path class="d" d="m460.1 171.1q-1.7 0-2.9-0.2-1.3-0.2-2.3-0.6-1-0.4-2.1-0.9v-3.6q1.3 1 3.1 1.6 1.8 0.7 3.9 0.7 2.1 0 3.1-0.8 1-0.9 1-2.4 0-1.1-0.7-1.8-0.8-0.7-2-1.2-1.2-0.5-2.6-1-1.1-0.4-2.1-0.8-1-0.5-1.8-1.2-0.9-0.6-1.3-1.7-0.5-1.1-0.5-2.6 0-1.1 0.4-2.2 0.4-1.1 1.3-2 0.9-0.9 2.3-1.5 1.4-0.5 3.4-0.5 1.4 0 2.3 0.1 1 0.2 1.9 0.5 0.8 0.4 1.9 0.9v3.5q-0.9-0.5-1.7-0.9-0.8-0.5-1.8-0.8-1-0.3-2.2-0.3-1.4-0.1-2.3 0.3-0.9 0.4-1.4 1-0.4 0.7-0.4 1.5 0 1.2 0.6 1.9 0.5 0.6 1.6 1.1 1 0.4 2.4 0.9 1.2 0.4 2.4 0.8 1.1 0.5 2 1.2 0.9 0.8 1.5 1.8 0.5 1.1 0.5 2.6 0 1.7-0.8 3.2-0.7 1.5-2.4 2.5-1.7 0.9-4.3 0.9z"/><path class="d" d="m471.9 170.7v-21.9h14.4v3h-10.7v6.4h9.3v3.1h-9.3v6.4h10.7v3z"/><path fill-rule="evenodd" class="d" d="m491.2 170.7v-21.9h9.8q3.4 0 5.2 1.6 1.9 1.7 1.9 5 0 1.7-0.7 3.2-0.7 1.4-2 2.3-1 0.7-2.1 0.9l5.8 8.9h-4.5l-5.1-8.3h-4.6v8.3zm3.6-11.2h5.1q2.2 0 3.2-1 1.1-0.9 1.1-2.9 0-1.8-0.8-2.8-0.9-1-2.9-1h-5.7z"/><path class="d" d="m519.1 170.7l-8.4-21.9h4.1l7 19.4h-1.2l6.9-19.4h3.8l-8.5 21.9z"/><path class="d" d="m534.5 170.7v-21.9h3.7v21.9z"/><path class="d" d="m552.8 171.1q-5.2 0-7.8-2.8-2.7-2.8-2.7-8.6 0-5.6 2.7-8.4 2.6-2.9 7.8-2.9 1.7 0 3.5 0.4 1.7 0.5 3.3 1.2v3.3q-1.6-1-3.2-1.4-1.6-0.5-3.1-0.5-2.5 0-4.1 0.9-1.5 0.8-2.3 2.7-0.8 1.8-0.8 4.8 0 2.9 0.8 4.7 0.8 1.9 2.4 2.7 1.6 0.8 4 0.8 1.5 0 3.1-0.4 1.6-0.5 3.2-1.4v3.3q-1 0.5-2.1 0.8-1.2 0.4-2.4 0.6-1.2 0.2-2.3 0.2z"/><path class="d" d="m564 170.7v-21.9h14.3v3h-10.7v6.4h9.4v3.1h-9.4v6.4h10.7v3z"/><path class="d" d="m590 171.1q-1.7 0-2.9-0.2-1.3-0.2-2.3-0.6-1-0.4-2.1-0.9v-3.6q1.3 1 3.1 1.6 1.8 0.7 3.9 0.7 2.1 0 3.1-0.8 1-0.9 1-2.4 0-1.1-0.7-1.8-0.8-0.7-2-1.2-1.2-0.5-2.6-1-1.1-0.4-2.1-0.8-1-0.5-1.8-1.2-0.8-0.6-1.3-1.7-0.5-1.1-0.5-2.6 0-1.1 0.4-2.2 0.4-1.1 1.3-2 0.9-0.9 2.3-1.5 1.4-0.5 3.4-0.5 1.4 0 2.3 0.1 1 0.2 1.9 0.5 0.8 0.4 1.9 0.9v3.5q-0.9-0.5-1.7-0.9-0.8-0.5-1.8-0.8-1-0.3-2.2-0.3-1.4-0.1-2.3 0.3-0.9 0.4-1.4 1-0.4 0.7-0.4 1.5 0 1.2 0.6 1.9 0.5 0.6 1.6 1.1 1 0.4 2.4 0.9 1.2 0.4 2.4 0.8 1.2 0.5 2 1.2 0.9 0.8 1.5 1.8 0.5 1.1 0.5 2.6 0 1.7-0.8 3.2-0.7 1.5-2.4 2.5-1.7 0.9-4.3 0.9z"/><path fill-rule="evenodd" class="e" d="m256 129.4q-24.5 0-37.3-11.7-12.9-11.8-12.9-36.4 0-23.9 12.5-36 12.5-12.2 37.7-12.2 24.9 0 37.7 11.8 12.9 11.8 12.9 36.4 0 23.9-12.6 36-3.3 3.2-7.6 5.6 1 1.3 1.9 2.4 3.4 3.6 8 3.6 2.6 0 4.7-0.5 2.1-0.5 5.4-2.3v12.2q-3 1.5-6.5 2.1-3.5 0.5-7.3 0.5-4.1 0-8-0.9-3.9-1-7.3-3.1-3.5-2.1-6.2-5.6-1-1.3-1.9-2.8-6.1 0.9-13.2 0.9zm0-13.5q4.2-0.1 7.7-0.8-0.4-0.8-0.9-1.5-2.3-4-5.5-6.3-3.2-2.3-7.8-2.3-5.2 0-9.4 2-2.1 1-3.9 2.4 2 2 4.4 3.2 6.2 3.3 15.4 3.3zm25.2-14.3q3.2-7.5 3.2-20.4 0-12.2-3.2-19.4-3.2-7.3-9.4-10.5-6.3-3.2-15.8-3.2-9.2 0-15.4 3.2-6.3 3.2-9.4 10.5-3.2 7.3-3.2 19.5 0 12.9 3.2 20.5 0.6 1.5 1.4 2.9v-4.8q2.7-3.1 8.1-5.7 5.3-2.7 12.6-2.7 6.7 0 12.3 2.6 5.6 2.6 10 7.8 1.6 2 3 4.4 1.5-2.1 2.6-4.7z"/><path class="e" d="m404 129.4q-23 0-34.7-9.3-11.8-9.2-11.8-28.2v-56.5h22.4v56q0 11.8 5.7 17.5 5.7 5.7 17.6 5.7 11.2 0 17.3-5.7 6.1-5.7 6.1-17.5v-56h20.6v56.5q0 12.6-5.4 21-5.4 8.4-15 12.5-9.7 4-22.8 4z"/><path fill-rule="evenodd" class="e" d="m548.6 128.7q-15.7 0-27-5.1-11.2-5.2-17.2-15.7-6.1-10.5-6.1-26.6 0-23.5 13.1-35.5 13.1-12 37.2-12 15.8 0 27 5.2 11.3 5.2 17.4 15.7 6.1 10.4 6.1 26.6 0 23.4-13.1 35.4-13.1 12-37.4 12zm0-15.5q9.5 0 15.7-3.2 6.3-3.3 9.4-10.3 3.2-7 3.2-18.5 0-11.6-3.2-18.5-3.1-6.9-9.4-10.1-6.2-3.1-15.7-3.1-9.2 0-15.5 3.2-6.2 3.2-9.4 10.1-3.2 7-3.2 18.5 0 11.6 3.2 18.6 3.2 7 9.4 10.1 6.3 3.2 15.5 3.2z"/></svg>